HIERARCHY
ROOT Hips
{
	OFFSET 0.000000 100.481300 0.000000
	CHANNELS 6 Xposition Yposition Zposition Xrotation Yrotation Zrotation
	JOINT Spine
	{
		OFFSET -0.279200 12.230698 -2.892100
		CHANNELS 3 Xrotation Yrotation Zrotation
		JOINT Spine1
		{
			OFFSET -0.325700 14.269203 -3.374200
			CHANNELS 3 Xrotation Yrotation Zrotation
			JOINT Spine2
			{
				OFFSET -0.372300 16.307602 -0.352600
				CHANNELS 3 Xrotation Yrotation Zrotation
				JOINT Neck
				{
					OFFSET -0.418800 17.814194 8.416900
					CHANNELS 3 Xrotation Yrotation Zrotation
					JOINT Head
					{
						OFFSET 0.000000 7.031097 3.806800
						CHANNELS 3 Xrotation Yrotation Zrotation
						JOINT HeadTop_End
						{
							OFFSET 0.000000 24.646606 12.978600
							CHANNELS 3 Xrotation Yrotation Zrotation
							End Site
							{
								OFFSET 0.000000 27.854965 0.000000
							}
						}
					}
				}
				JOINT LeftShoulder
				{
					OFFSET 16.952999 14.495407 -7.737500
					CHANNELS 3 Xrotation Yrotation Zrotation
					JOINT LeftArm
					{
						OFFSET 9.308998 -2.777710 0.208600
						CHANNELS 3 Xrotation Yrotation Zrotation
						JOINT LeftForeArm
						{
							OFFSET 29.972298 0.000000 0.000000
							CHANNELS 3 Xrotation Yrotation Zrotation
							JOINT LeftHand
							{
								OFFSET 26.026505 0.000000 0.000000
								CHANNELS 3 Xrotation Yrotation Zrotation
								JOINT LeftHandThumb1
								{
									OFFSET 12.240501 -7.147949 9.207150
									CHANNELS 3 Xrotation Yrotation Zrotation
									JOINT LeftHandThumb2
									{
										OFFSET 4.138618 -2.389435 2.389433
										CHANNELS 3 Xrotation Yrotation Zrotation
										JOINT LeftHandThumb3
										{
											OFFSET 2.726913 -1.574387 1.574386
											CHANNELS 3 Xrotation Yrotation Zrotation
											JOINT LeftHandThumb4
											{
												OFFSET 3.941010 -2.275345 2.275342
												CHANNELS 3 Xrotation Yrotation Zrotation
												End Site
												{
													OFFSET -0.005798 5.087799 0.009903
												}
											}
										}
									}
								}
								JOINT LeftHandIndex1
								{
									OFFSET 24.424698 -1.985611 5.953459
									CHANNELS 3 Xrotation Yrotation Zrotation
									JOINT LeftHandIndex2
									{
										OFFSET 6.426697 0.000000 0.000000
										CHANNELS 3 Xrotation Yrotation Zrotation
										JOINT LeftHandIndex3
										{
											OFFSET 5.337898 0.000000 0.000000
											CHANNELS 3 Xrotation Yrotation Zrotation
											JOINT LeftHandIndex4
											{
												OFFSET 4.409401 0.000000 0.000000
												CHANNELS 3 Xrotation Yrotation Zrotation
												End Site
												{
													OFFSET 0.000000 4.409363 0.014373
												}
											}
										}
									}
								}
								JOINT LeftHandMiddle1
								{
									OFFSET 23.810104 0.000000 0.000000
									CHANNELS 3 Xrotation Yrotation Zrotation
									JOINT LeftHandMiddle2
									{
										OFFSET 7.176498 0.000000 0.000000
										CHANNELS 3 Xrotation Yrotation Zrotation
										JOINT LeftHandMiddle3
										{
											OFFSET 6.774902 0.000000 0.000000
											CHANNELS 3 Xrotation Yrotation Zrotation
											JOINT LeftHandMiddle4
											{
												OFFSET 5.403328 0.000000 0.000000
												CHANNELS 3 Xrotation Yrotation Zrotation
												End Site
												{
													OFFSET -0.027702 5.403244 0.017414
												}
											}
										}
									}
								}
								JOINT LeftHandRing1
								{
									OFFSET 22.908401 -0.839279 -6.020567
									CHANNELS 3 Xrotation Yrotation Zrotation
									JOINT LeftHandRing2
									{
										OFFSET 6.337502 0.000000 0.000000
										CHANNELS 3 Xrotation Yrotation Zrotation
										JOINT LeftHandRing3
										{
											OFFSET 5.779297 0.000000 0.000000
											CHANNELS 3 Xrotation Yrotation Zrotation
											JOINT LeftHandRing4
											{
												OFFSET 4.965698 0.000000 0.000000
												CHANNELS 3 Xrotation Yrotation Zrotation
												End Site
												{
													OFFSET 0.000000 4.965668 0.016186
												}
											}
										}
									}
								}
								JOINT LeftHandPinky1
								{
									OFFSET 20.037003 -1.530319 -10.950146
									CHANNELS 3 Xrotation Yrotation Zrotation
									JOINT LeftHandPinky2
									{
										OFFSET 5.254700 0.000000 0.000000
										CHANNELS 3 Xrotation Yrotation Zrotation
										JOINT LeftHandPinky3
										{
											OFFSET 4.810204 0.000000 0.000000
											CHANNELS 3 Xrotation Yrotation Zrotation
											JOINT LeftHandPinky4
											{
												OFFSET 3.647202 0.000000 0.000000
												CHANNELS 3 Xrotation Yrotation Zrotation
												End Site
												{
													OFFSET 0.000000 3.647186 0.011889
												}
											}
										}
									}
								}
							}
						}
					}
				}
				JOINT RightShoulder
				{
					OFFSET -15.141001 14.495407 -7.737500
					CHANNELS 3 Xrotation Yrotation Zrotation
					JOINT RightArm
					{
						OFFSET -9.308998 -2.777710 0.208500
						CHANNELS 3 Xrotation Yrotation Zrotation
						JOINT RightForeArm
						{
							OFFSET -29.972300 0.000000 0.000000
							CHANNELS 3 Xrotation Yrotation Zrotation
							JOINT RightHand
							{
								OFFSET -26.026505 0.000000 0.000000
								CHANNELS 3 Xrotation Yrotation Zrotation
								JOINT RightHandThumb1
								{
									OFFSET -12.240601 -7.148026 9.207092
									CHANNELS 3 Xrotation Yrotation Zrotation
									JOINT RightHandThumb2
									{
										OFFSET -4.138618 -2.389435 2.389433
										CHANNELS 3 Xrotation Yrotation Zrotation
										JOINT RightHandThumb3
										{
											OFFSET -2.726974 -1.574417 1.574421
											CHANNELS 3 Xrotation Yrotation Zrotation
											JOINT RightHandThumb4
											{
												OFFSET -3.941010 -2.275345 2.275343
												CHANNELS 3 Xrotation Yrotation Zrotation
												End Site
												{
													OFFSET 0.005814 5.087799 0.009927
												}
											}
										}
									}
								}
								JOINT RightHandIndex1
								{
									OFFSET -24.424698 -1.985657 5.953444
									CHANNELS 3 Xrotation Yrotation Zrotation
									JOINT RightHandIndex2
									{
										OFFSET -6.426697 0.000000 0.000000
										CHANNELS 3 Xrotation Yrotation Zrotation
										JOINT RightHandIndex3
										{
											OFFSET -5.337898 0.000000 0.000000
											CHANNELS 3 Xrotation Yrotation Zrotation
											JOINT RightHandIndex4
											{
												OFFSET -4.409401 0.000000 0.000000
												CHANNELS 3 Xrotation Yrotation Zrotation
												End Site
												{
													OFFSET 0.000000 4.409363 0.014408
												}
											}
										}
									}
								}
								JOINT RightHandMiddle1
								{
									OFFSET -23.810097 0.000000 0.000000
									CHANNELS 3 Xrotation Yrotation Zrotation
									JOINT RightHandMiddle2
									{
										OFFSET -7.176498 0.000000 0.000000
										CHANNELS 3 Xrotation Yrotation Zrotation
										JOINT RightHandMiddle3
										{
											OFFSET -6.774902 0.000000 0.000000
											CHANNELS 3 Xrotation Yrotation Zrotation
											JOINT RightHandMiddle4
											{
												OFFSET -5.403328 0.000000 0.000000
												CHANNELS 3 Xrotation Yrotation Zrotation
												End Site
												{
													OFFSET 0.027702 5.403244 0.017457
												}
											}
										}
									}
								}
								JOINT RightHandRing1
								{
									OFFSET -22.908302 -0.839325 -6.020576
									CHANNELS 3 Xrotation Yrotation Zrotation
									JOINT RightHandRing2
									{
										OFFSET -6.337502 0.000000 0.000000
										CHANNELS 3 Xrotation Yrotation Zrotation
										JOINT RightHandRing3
										{
											OFFSET -5.779297 0.000000 0.000000
											CHANNELS 3 Xrotation Yrotation Zrotation
											JOINT RightHandRing4
											{
												OFFSET -4.965698 0.000000 0.000000
												CHANNELS 3 Xrotation Yrotation Zrotation
												End Site
												{
													OFFSET 0.000000 4.965668 0.016226
												}
											}
										}
									}
								}
								JOINT RightHandPinky1
								{
									OFFSET -20.037003 -1.530334 -10.950259
									CHANNELS 3 Xrotation Yrotation Zrotation
									JOINT RightHandPinky2
									{
										OFFSET -5.254700 0.000000 0.000000
										CHANNELS 3 Xrotation Yrotation Zrotation
										JOINT RightHandPinky3
										{
											OFFSET -4.810204 0.000000 0.000000
											CHANNELS 3 Xrotation Yrotation Zrotation
											JOINT RightHandPinky4
											{
												OFFSET -3.647202 0.000000 0.000000
												CHANNELS 3 Xrotation Yrotation Zrotation
												End Site
												{
													OFFSET 0.000000 3.647186 0.011917
												}
											}
										}
									}
								}
							}
						}
					}
				}
			}
		}
	}
	JOINT LeftUpLeg
	{
		OFFSET 15.427100 -6.655098 0.678600
		CHANNELS 3 Xrotation Yrotation Zrotation
		JOINT LeftLeg
		{
			OFFSET 4.081073 -39.591068 13.024000
			CHANNELS 3 Xrotation Yrotation Zrotation
			JOINT LeftFoot
			{
				OFFSET -4.081074 -37.707932 -15.979700
				CHANNELS 3 Xrotation Yrotation Zrotation
				JOINT LeftToeBase
				{
					OFFSET 5.346399 -15.068900 20.645000
					CHANNELS 3 Xrotation Yrotation Zrotation
					JOINT LeftToe_End
					{
						OFFSET 2.754700 0.931300 11.300900
						CHANNELS 3 Xrotation Yrotation Zrotation
						End Site
						{
							OFFSET 0.000000 11.669021 0.000000
						}
					}
				}
			}
		}
	}
	JOINT RightUpLeg
	{
		OFFSET -15.569500 -6.655098 0.678600
		CHANNELS 3 Xrotation Yrotation Zrotation
		JOINT RightLeg
		{
			OFFSET -4.081825 -39.591045 13.023800
			CHANNELS 3 Xrotation Yrotation Zrotation
			JOINT RightFoot
			{
				OFFSET 4.081824 -37.707954 -15.979600
				CHANNELS 3 Xrotation Yrotation Zrotation
				JOINT RightToeBase
				{
					OFFSET -5.346400 -15.068900 20.645000
					CHANNELS 3 Xrotation Yrotation Zrotation
					JOINT RightToe_End
					{
						OFFSET -2.754700 0.931300 11.300900
						CHANNELS 3 Xrotation Yrotation Zrotation
						End Site
						{
							OFFSET 0.000000 11.669021 0.000000
						}
					}
				}
			}
		}
	}
}
MOTION
Frames: 6
Frame Time: 0.033333
1.930118 83.252472 -5.386595 3.719030 -3.150377 -4.131456 2.804961 1.248830 3.356245 5.779063 3.296851 0.041290 5.779072 3.296854 0.041289 -3.864357 -1.326556 -1.546570 -9.239926 -1.726847 -0.954932 0.000000 -0.000000 0.000000 -3.200163 -7.488085 -10.433774 30.064993 -10.085201 -69.254976 89.241619 -73.303598 98.832393 -1.216619 -27.660164 17.312199 5.010114 -0.240073 16.811944 17.050614 33.838789 -5.591705 -5.686331 -19.493116 -1.861303 -0.000003 0.000001 0.000000 7.338907 3.827332 -78.813997 5.569809 5.998103 -93.784938 2.299503 4.346790 -58.499006 -0.000002 0.000000 0.000001 1.878619 10.470656 -70.864142 4.891839 6.086511 -87.925080 2.661383 6.037651 -63.633314 -0.000001 -0.000002 -0.000000 -0.874555 19.679284 -76.837463 5.931192 5.000147 -92.540088 3.492893 5.772847 -69.252032 -0.000000 -0.000001 0.000001 -6.204792 25.233509 -82.488932 3.255918 5.098016 -73.817126 6.526988 3.307214 -89.959739 0.000002 0.000002 0.000000 -3.740007 15.876447 17.802448 7.676682 6.768436 60.993985 100.738692 46.473102 -108.896595 -5.677186 19.272977 -2.073723 5.007307 0.239306 -16.816742 17.048473 -33.839814 5.588436 -5.904758 20.380233 2.630602 0.000007 0.000001 -0.000001 7.339450 -3.828281 78.807119 5.570731 -5.998982 93.784952 1.667049 -4.100335 62.122107 0.000000 0.000001 -0.000000 1.878232 -10.470936 70.857141 4.892688 -6.087405 87.925073 -1.992569 -4.352681 67.041558 0.000001 0.000001 0.000002 -0.876010 -19.679201 76.830175 5.932033 -5.000971 92.540088 -2.836788 -3.600686 68.506695 0.000001 0.000000 -0.000000 -6.206867 -25.232853 82.481522 3.256541 -5.098829 73.817112 0.187126 -3.266709 81.669835 -0.000001 -0.000000 -0.000000 -29.791209 -3.497244 6.247203 73.849064 2.259030 -0.328451 2.134848 -0.380605 2.824943 -16.870057 2.488159 -8.177767 0.000001 -0.000000 0.000000 -5.102523 -9.870720 12.523109 44.700525 -0.972129 -6.843261 -27.170315 -1.277919 -3.794951 -25.379675 -2.841984 1.833474 0.000000 0.000000 -0.000000 
1.892732 87.739120 2.394516 4.187878 -3.668147 -2.482456 2.705626 1.873627 3.030917 5.659975 4.205855 -0.684559 5.659975 4.205853 -0.684558 -2.404827 -1.374236 -2.340417 -8.809283 -2.541708 0.777186 -0.000000 0.000000 0.000000 -3.072309 -7.045495 -9.377075 35.711040 -9.902401 -67.674669 101.225917 -68.809129 112.003232 -1.000004 -23.843890 20.424709 5.010112 -0.240074 16.811942 16.212081 34.324518 -5.109955 -5.676670 -19.522335 -1.505326 0.000002 -0.000000 -0.000002 7.349883 3.840547 -79.463165 5.609684 5.995328 -94.225192 2.332920 4.368853 -58.937614 -0.000000 -0.000000 -0.000002 2.094551 10.663996 -71.939036 5.020624 6.092167 -89.359030 2.806055 6.096072 -65.025757 0.000001 0.000000 0.000000 -0.501031 19.861531 -78.038880 5.990337 4.990911 -93.196408 3.565477 5.791479 -69.908905 0.000001 -0.000002 0.000000 -5.734237 25.497542 -83.555261 3.342500 5.130754 -74.800905 6.574917 3.283843 -90.941537 -0.000001 -0.000001 -0.000001 -4.030223 17.034205 18.208629 5.725968 7.480561 60.918218 102.093966 43.786676 -111.308512 -6.113475 19.364956 0.152995 5.007303 0.239308 -16.816735 16.595570 -34.224541 5.441484 -5.951893 20.284202 3.750622 0.000005 -0.000001 -0.000002 7.283161 -3.829892 77.878855 5.475574 -6.004382 92.734967 1.593021 -4.035196 61.077300 0.000001 -0.000002 0.000000 1.809636 -10.416091 69.990273 4.859679 -6.085419 87.557206 -2.019409 -4.307029 66.677563 0.000000 -0.000001 0.000001 -1.102648 -19.580219 75.899459 5.914317 -5.003619 92.342880 -2.836789 -3.600627 68.506715 -0.000000 0.000000 -0.000001 -6.394043 -24.808398 80.684246 3.188604 -5.071133 73.002045 0.148438 -3.195730 80.858641 -0.000001 -0.000003 -0.000001 -27.292930 -3.899610 5.629997 60.468901 5.714097 -0.636154 1.925714 0.435491 -3.694403 -23.449610 2.120159 -4.966365 0.000000 0.000001 -0.000000 -1.067748 -11.007725 9.363206 39.795138 2.652816 -7.142812 -15.210309 -3.294134 -1.864336 -32.652361 -1.233602 1.330387 -0.000000 0.000001 0.000000 
1.715668 92.486244 10.273963 4.740855 -3.895765 -0.818123 2.611321 2.370544 2.451446 5.527053 4.855349 -1.528633 5.527058 4.855350 -1.528633 -1.844252 -1.738655 -2.125203 -8.585324 -3.046127 1.440399 0.000000 0.000000 -0.000000 -3.202969 -6.204827 -10.235372 41.044219 -8.101678 -64.509190 111.371091 -65.093205 124.308992 -1.695936 -19.124788 19.291342 5.010111 -0.240073 16.811942 14.208794 35.464128 -3.950200 -5.663646 -19.560811 -1.034987 0.000003 -0.000001 -0.000002 7.294201 3.781650 -81.300602 5.650107 5.992192 -94.672173 2.367025 4.391021 -59.382949 0.000000 -0.000001 -0.000002 2.418003 10.914359 -73.961885 5.181581 6.094724 -91.149551 2.952411 6.151132 -66.421267 -0.000002 0.000002 -0.000006 0.092998 20.105027 -80.222867 6.060185 4.979103 -93.973048 3.651321 5.812159 -70.686290 0.000003 -0.000001 0.000000 -5.009589 25.869509 -85.453535 3.438332 5.164163 -75.837510 6.624981 3.258312 -91.975881 -0.000002 0.000000 -0.000002 -4.328121 18.172797 18.614441 3.785065 8.211428 60.979922 103.216473 41.337995 -113.622321 -6.491376 20.112095 2.445405 5.007306 0.239311 -16.816740 15.875390 -34.835655 5.210207 -6.015914 20.145003 5.355708 0.000003 0.000001 -0.000001 7.435086 -3.917796 75.993682 5.394081 -6.007611 91.836968 1.530673 -3.978421 60.183775 0.000001 0.000000 -0.000001 1.786930 -10.283500 68.120386 4.829275 -6.083429 87.218367 -2.043835 -4.264874 66.342365 0.000001 0.000000 0.000001 -1.539741 -19.377011 74.084644 5.901722 -5.005460 92.202609 -2.836765 -3.600600 68.506715 0.000001 -0.000002 -0.000000 -6.712310 -24.008666 77.225240 3.151301 -5.055468 72.553206 0.127592 -3.156448 80.412630 -0.000001 -0.000001 -0.000001 -24.451766 -3.740050 3.550188 45.358446 10.553850 0.191792 2.170899 0.540067 -4.667567 -19.573645 0.962554 -4.343115 -0.000000 -0.000000 0.000000 3.620223 -12.671319 6.767063 31.883398 3.608722 -7.967100 -0.681564 -1.957782 1.272112 -39.892270 2.401099 0.653387 0.000000 0.000000 0.000000 
1.597082 95.833298 17.523348 6.901025 -3.673593 1.089621 2.255229 2.755803 1.205541 4.777674 5.191882 -2.202772 4.777668 5.191877 -2.202771 -2.423407 -2.292408 -1.400646 -8.514937 -3.340562 1.297487 0.000001 0.000000 -0.000000 -3.371297 -5.135577 -11.508148 45.130745 -5.993791 -61.847862 119.423221 -61.746099 134.669064 -2.481123 -13.652578 16.263329 5.010113 -0.240075 16.811944 13.203513 36.025133 -3.363521 -5.661062 -19.564390 -0.969835 -0.000001 0.000001 -0.000000 7.302425 3.790625 -81.907656 5.672428 5.990347 -94.918777 2.385948 4.403113 -59.628658 0.000000 -0.000000 0.000001 2.560365 11.031243 -74.452935 5.229446 6.094501 -91.682005 2.935865 6.145109 -66.265075 0.000000 -0.000004 0.000003 0.293130 20.192442 -80.811697 6.074891 4.976501 -94.136720 3.669295 5.816230 -70.850160 -0.000002 -0.000000 0.000002 -4.916750 25.914993 -85.885066 3.480126 5.177888 -76.279600 6.646147 3.247310 -92.416899 0.000001 0.000001 -0.000002 -4.670780 19.512201 19.036523 1.479770 9.087565 61.204007 104.191209 38.631181 -116.097684 -7.000592 21.285105 5.170043 5.007303 0.239311 -16.816739 16.052794 -34.685060 5.266691 -6.090863 19.966492 7.384620 0.000004 0.000000 0.000001 7.820418 -4.146584 72.984840 5.287390 -6.009924 90.661397 1.450383 -3.902662 59.014317 -0.000000 0.000000 -0.000000 1.699119 -10.069546 64.900874 4.776257 -6.079514 86.626975 -2.085900 -4.190968 65.757475 0.000002 -0.000000 0.000000 -2.221451 -19.026002 71.196540 5.879350 -5.008653 91.953771 -2.836750 -3.600547 68.506729 0.000004 0.000000 -0.000002 -7.213915 -23.014980 72.719221 3.084369 -5.026444 71.742702 0.090716 -3.085114 79.606982 0.000004 0.000001 0.000000 -24.545762 -3.244956 -0.260998 30.924822 12.579242 2.099030 0.442401 0.861834 -4.501891 -5.103536 0.429634 -2.159935 -0.000000 -0.000001 0.000000 6.215681 -14.549331 4.193363 23.991198 3.533642 -7.825927 13.273166 1.640805 3.325937 -53.357387 5.227290 1.773260 0.000001 0.000001 -0.000000 
1.514957 98.056221 24.124329 9.045397 -3.095956 2.519868 1.923769 2.933480 -0.313022 3.994098 5.455881 -2.420108 3.994098 5.455882 -2.420109 -3.715441 -2.838779 -0.682266 -8.581184 -3.531982 0.865668 0.000000 -0.000000 0.000000 -3.435370 -4.476027 -12.037825 47.341148 -4.765961 -60.750510 123.364309 -59.022117 140.022320 -2.907928 -8.646574 14.936953 5.010111 -0.240075 16.811942 11.585893 36.913552 -2.414599 -5.662193 -19.564978 -0.983982 0.000001 -0.000002 0.000000 7.364575 3.853654 -82.711924 5.705320 5.987417 -95.282300 2.413892 4.420791 -59.990849 0.000001 -0.000000 0.000003 2.721069 11.162596 -74.915106 5.276549 6.093882 -92.206195 2.934839 6.144728 -66.255847 -0.000003 0.000001 -0.000001 0.452906 20.248106 -81.441366 6.084133 4.974849 -94.239767 3.680533 5.818682 -70.953351 0.000001 0.000001 -0.000000 -4.776623 25.978251 -86.414713 3.511902 5.188166 -76.619710 6.662391 3.238783 -92.756196 0.000001 -0.000001 0.000001 -4.944044 20.403249 19.417721 -0.092058 9.684763 61.525866 104.869755 36.838256 -117.977571 -7.423605 22.510622 7.186782 5.007306 0.239307 -16.816735 16.580072 -34.237645 5.436424 -6.157805 19.788955 9.373781 0.000001 -0.000002 -0.000003 8.097815 -4.311405 71.199538 5.176766 -6.010026 89.442734 1.368810 -3.822393 57.802218 0.000002 -0.000000 0.000000 1.612557 -9.934259 62.803890 4.728629 -6.075526 86.095566 -2.123051 -4.124189 65.232022 0.000001 0.000000 -0.000001 -2.675320 -18.767688 69.229083 5.863959 -5.010789 91.782545 -2.836748 -3.600511 68.506750 0.000003 0.000000 -0.000002 -7.682492 -22.406463 69.899719 3.044766 -5.008734 71.261406 0.069285 -3.042470 79.128670 -0.000001 -0.000000 0.000000 -24.817774 -1.507190 -3.440422 17.007634 9.064634 2.228424 -2.585577 1.047889 -4.443192 5.321705 2.624539 -0.983579 0.000000 0.000000 -0.000000 8.565710 -15.060413 2.168545 16.172269 2.530546 -7.477829 25.266403 4.977083 7.196426 -65.699071 12.647364 4.128386 0.000000 0.000000 -0.000000 
1.581025 99.206863 29.939152 9.194742 -2.503895 3.734335 1.927449 2.946238 -2.024955 3.822057 5.559342 -2.294185 3.822057 5.559343 -2.294183 -4.695530 -3.182596 -0.256046 -8.780864 -3.669620 0.669022 0.000000 0.000000 -0.000000 -3.399913 -4.302286 -11.698349 48.759392 -4.101801 -60.532524 126.935487 -57.805230 144.853013 -3.186168 -4.086227 13.719517 5.010109 -0.240072 16.811942 11.775681 36.810758 -2.526211 -5.668333 -19.547100 -1.202769 -0.000003 -0.000000 0.000002 7.454229 3.946521 -82.313437 5.722450 5.985814 -95.472091 2.428578 4.429966 -60.179943 0.000000 0.000000 -0.000002 2.721813 11.184130 -74.444028 5.297969 6.093451 -92.444636 2.934770 6.144699 -66.255827 -0.000002 0.000003 -0.000001 0.328667 20.215640 -80.899950 6.088913 4.973964 -94.293214 3.686254 5.819852 -71.006852 -0.000001 0.000000 -0.000000 -4.876824 25.928103 -86.063969 3.522808 5.191345 -76.718645 6.667074 3.236450 -92.854864 0.000003 0.000002 -0.000002 -5.092805 20.493656 19.772441 -0.384761 9.702157 61.805070 105.390714 36.713216 -118.810294 -7.485823 23.444655 7.681479 5.007307 0.239310 -16.816740 16.346132 -34.436130 5.360669 -6.184447 19.712602 10.222433 -0.000001 0.000004 -0.000001 8.031572 -4.215541 71.849157 5.185252 -6.010094 89.536321 1.375104 -3.828665 57.895293 0.000000 0.000000 -0.000000 1.657862 -9.967919 63.359362 4.738508 -6.076401 86.206037 -2.115343 -4.138062 65.341264 0.000001 -0.000000 0.000000 -2.571283 -18.828740 69.683707 5.875093 -5.009276 91.904881 -2.836726 -3.600482 68.506750 0.000002 -0.000002 -0.000002 -7.679959 -22.530045 70.469541 3.084641 -5.026574 71.749949 0.091025 -3.085602 79.614229 0.000000 -0.000002 -0.000000 -23.522876 1.042584 -5.993019 6.127337 4.199103 -0.328594 -2.218044 0.600312 -1.198823 8.620924 4.466412 -1.158252 0.000000 -0.000000 0.000000 11.984701 -15.002376 -0.149288 9.537602 1.522600 -7.418011 35.199257 7.274700 11.683329 -76.919576 14.525138 10.576068 0.000000 0.000000 -0.000000 
